<?xml version="1.0" encoding="utf-8"?>
<!-- Generator: Adobe Illustrator 19.1.0, SVG Export Plug-In . SVG Version: 6.00 Build 0)  -->
<!DOCTYPE svg PUBLIC "-//W3C//DTD SVG 1.1//EN" "http://www.w3.org/Graphics/SVG/1.1/DTD/svg11.dtd">
<svg version="1.1" id="Layer_1" xmlns="http://www.w3.org/2000/svg" xmlns:xlink="http://www.w3.org/1999/xlink" x="0px" y="0px"
	 viewBox="0 0 557 129" style="enable-background:new 0 0 557 129;" xml:space="preserve">
<style type="text/css">
	.st0{fill:#EF3E42;}
	.st1{font-family:'ArialMT';}
	.st2{font-size:11.5815px;}
</style>
<g>
	<g>
		<path d="M273.4,79c-0.1,13.7,9.6,26.3,23.2,26.3c6.3,0,14-2.3,18.8-5.9l3.6,6.7c-7.1,5.1-15.6,8-22.8,8
			c-21.4,0-35.5-13.2-35.5-37.3c0-23.7,17-34.6,32.5-34.6C314,42.2,321,61,319.6,79H273.4z M308.4,70.8c0-10.7-4.5-19.8-15.4-19.8
			c-13.2,0-18.4,11-18.8,19.8H308.4z"/>
		<path d="M447,43.9h18V51h-18v38.8c0,9.6,1.9,15.4,9.4,15.4c4.5,0,7.1-1.1,9.5-2.3l3,6.9c-4.2,2.8-9.3,4.4-14,4.4
			c-13.7,0-20.3-8-20.3-21.9V51h-9.6v-7.1h9.6V27.4l12.3-4.1V43.9z"/>
		<polygon points="400.6,11.7 400.6,16.9 406.2,16.9 406.2,112.5 418.5,112.5 418.5,11.7 		"/>
		<path d="M507.8,42.2c-7.1,0-17,3.3-23.5,10.2V11.7h-17.9v5.2h5.6l0.1,95.6h12.3V71.2c0-13.2,8.9-19.9,18.7-19.9
			c11.1,0,16.6,6.7,16.6,19.6v41.6h12.4V68.3C532.1,51,523.6,42.2,507.8,42.2"/>
		<polygon points="232.7,16.5 232.7,21.7 237.3,21.7 237.3,55.1 190.4,55.1 190.4,16.5 172.5,16.5 172.5,21.7 177.1,21.7 
			177.1,112.5 190.4,112.5 190.4,64.7 237.3,64.7 237.3,112.5 250.6,112.5 250.6,16.5 		"/>
		<path d="M380.8,45.8c-6.4-2.1-12.3-3.3-18-3.3c-21,0-34.5,14.4-34.5,35.7c0,20.8,13,34.8,31.3,34.8c7.2,0,14.3-2.4,22.1-6.9
			c0.4,2.4,0.1,3,0.9,5.2h9.7V44l-11.3,0L380.8,45.8z M380.8,97.9c-7,3.7-12.9,6.1-18.9,6.1c-13,0-21.8-9.5-21.8-25.6
			c0-16.4,9.7-26.9,24-26.9c5.1,0,10.7,1.5,16.7,4.4V97.9"/>
	</g>
	<g>
		<rect x="74.6" y="2" class="st0" width="24" height="7"/>
		<path class="st0" d="M96.6,120c-22.8-5.8-39.7-25.2-39.7-50.1c0-19.1,11.2-34.5,27.6-43.2v-9.4c-23.7,7.8-40.7,27.8-40.7,52.5
			c0,12.2,3.2,21.8,8.7,30.4c-14.6-2.6-21-12.8-21-30.4V2H5.4v7H18v60.9c0,24.4,15.9,37.1,40.1,37.5c9.3,10.3,22.4,17.5,37.3,19.6
			L96.6,120"/>
		<path class="st0" d="M84.5,69.9c0,9.6,1,17.2,7,23.9c5.5-6.8,7.1-13.1,7.1-23.9l-0.1-55.3c2.6-0.3,5.2-0.5,7.8-0.5
			c10.8,0,21.7,1.2,34.6,7.7l0.9-5.2L149,18l-4.2,24.6l-6-1.2c-0.5-11.1-10.2-20.7-26.4-20.7v49.2c0,14.3-4.9,23.5-14.6,30.6
			c11.4,10.7,30.2,9.6,39.4,4.9l1.7,2.6c-6.8,4.7-16.2,6.6-24.3,6.6c-23.7,0-43.1-19.6-43.1-44.7c0-12,5-21.7,13-29.4V69.9"/>
	</g>
	<g>
		<text transform="matrix(1 0 0 1 538.1582 112.0137)" class="st1 st2">TM</text>
	</g>
</g>
</svg>
