<?xml version="1.0" encoding="utf-8"?>
<!-- Generator: Adobe Illustrator 16.0.3, SVG Export Plug-In . SVG Version: 6.00 Build 0)  -->
<!DOCTYPE svg PUBLIC "-//W3C//DTD SVG 1.1//EN" "http://www.w3.org/Graphics/SVG/1.1/DTD/svg11.dtd">
<svg version="1.1" id="Layer_1" xmlns="http://www.w3.org/2000/svg" xmlns:xlink="http://www.w3.org/1999/xlink" x="0px" y="0px"
	 width="512px" height="512px" viewBox="0 0 512 512" enable-background="new 0 0 512 512" xml:space="preserve">
<g>
	<rect x="247.149" y="41.561" fill="#EF3E42" width="82.729" height="24.129"/>
	<path fill="#EF3E42" d="M322.984,448.311c-78.593-19.993-136.848-86.865-136.848-172.696c0-65.839,38.606-118.923,95.138-148.912
		V94.3C199.58,121.187,140.98,190.128,140.98,275.27c0,42.054,11.03,75.146,29.989,104.79
		c-50.327-8.963-72.388-44.122-72.388-104.79V41.561H8.614v24.129h43.433v209.925c0,84.107,54.808,127.885,138.226,129.264
		c32.057,35.505,77.213,60.323,128.575,67.562L322.984,448.311"/>
	<path fill="#EF3E42" d="M281.274,275.614c0,33.091,3.447,59.289,24.13,82.384c18.959-23.439,24.474-45.156,24.474-82.384
		l-0.345-190.621c8.963-1.034,17.925-1.724,26.887-1.724c37.229,0,74.801,4.137,119.268,26.542l3.103-17.925l24.818,4.826
		l-14.478,84.797l-20.682-4.137c-1.724-38.262-35.16-71.354-91.002-71.354v169.595c0,49.292-16.891,81.005-50.327,105.479
		c39.296,36.883,104.101,33.091,135.813,16.89l5.86,8.963c-23.44,16.201-55.843,22.75-83.764,22.75
		c-81.694,0-148.567-67.562-148.567-154.082c0-41.364,17.235-74.801,44.812-101.343L281.274,275.614"/>
</g>
</svg>
