<?xml version="1.0" standalone="no"?>
<!DOCTYPE svg PUBLIC "-//W3C//DTD SVG 20010904//EN"
 "http://www.w3.org/TR/2001/REC-SVG-20010904/DTD/svg10.dtd">
<svg version="1.0" xmlns="http://www.w3.org/2000/svg"
 width="700.000000pt" height="700.000000pt" viewBox="0 0 700.000000 700.000000"
 preserveAspectRatio="xMidYMid meet">
<metadata>
Created by potrace 1.11, written by Peter Selinger 2001-2013
</metadata>
<g transform="translate(0.000000,700.000000) scale(0.100000,-0.100000)"
fill="#000000" stroke="none">
<path d="M119 6398 c-1 -40 -1 -245 0 -275 l1 -22 291 0 c160 0 293 -2 295 -3
2 -2 5 -697 7 -1543 2 -847 6 -1558 10 -1580 4 -22 11 -69 17 -105 11 -73 17
-104 24 -128 3 -9 7 -29 10 -43 2 -14 20 -75 41 -135 174 -523 587 -881 1180
-1024 99 -24 101 -25 165 -35 25 -4 52 -9 60 -10 16 -3 127 -16 175 -21 17 -1
70 -4 118 -6 l88 -3 72 -75 c40 -41 106 -104 147 -140 41 -36 77 -67 80 -70 9
-10 122 -95 195 -146 260 -185 615 -346 941 -428 78 -19 302 -66 318 -66 4 0
23 93 31 155 4 22 8 47 10 55 2 8 7 35 10 60 4 24 9 48 11 52 3 4 -28 16 -68
28 -185 53 -396 139 -531 216 -141 80 -149 85 -211 126 -150 101 -390 315
-496 443 -238 288 -393 586 -482 924 -33 127 -31 118 -48 221 -6 41 -13 86
-16 100 -23 136 -22 472 1 620 64 400 209 735 454 1049 62 80 230 256 316 332
107 94 308 234 450 314 28 15 52 30 55 32 5 5 8 443 3 443 -25 0 -269 -102
-408 -170 -614 -302 -1068 -772 -1324 -1370 -24 -57 -90 -251 -97 -284 -2 -10
-10 -42 -18 -70 -13 -46 -23 -100 -55 -311 -6 -33 -8 -175 -7 -315 3 -198 8
-284 25 -385 53 -334 156 -626 313 -892 53 -90 67 -120 51 -110 -5 3 -20 8
-34 11 -87 20 -111 26 -169 46 -163 55 -300 139 -415 254 -123 124 -203 258
-264 445 -45 137 -65 245 -86 466 -3 28 -5 805 -5 1728 l-1 1677 -614 0 -615
0 -1 -32z"/>
<path d="M3380 6266 l0 -165 565 0 565 0 0 165 0 164 -565 0 -565 0 0 -164z"/>
<path d="M4659 5856 c-4 -3 -106 -15 -139 -16 -13 0 -15 -165 -15 -1427 0
-1261 -3 -1516 -20 -1598 -3 -11 -7 -36 -10 -55 -16 -114 -68 -278 -119 -379
-61 -117 -171 -275 -186 -266 -15 10 -94 116 -133 180 -78 128 -143 320 -162
485 -3 25 -8 56 -11 70 -13 71 -17 293 -17 993 -1 422 -4 767 -7 767 -23 0
-230 -249 -309 -370 -84 -130 -192 -358 -216 -455 -1 -5 -5 -17 -8 -25 -3 -8
-15 -55 -27 -105 -67 -293 -59 -671 21 -965 11 -41 25 -92 30 -112 23 -94 151
-380 200 -450 11 -14 19 -29 19 -32 0 -9 87 -133 148 -211 51 -65 235 -253
292 -300 246 -199 534 -341 830 -409 266 -61 609 -66 880 -11 14 3 41 8 60 11
184 32 446 132 602 230 l47 30 -39 61 -39 62 -48 -20 c-26 -11 -57 -24 -68
-29 -65 -30 -211 -68 -320 -84 -22 -4 -53 -9 -70 -11 -154 -25 -393 -20 -570
10 -125 22 -135 24 -225 51 -91 28 -111 36 -235 95 -120 57 -321 198 -313 219
2 3 35 33 73 65 206 170 333 328 433 535 86 178 131 338 157 560 13 107 14
207 14 1398 l1 1203 68 -2 c37 -1 94 -5 127 -10 33 -4 78 -10 100 -13 22 -2
47 -7 55 -10 8 -3 26 -7 40 -10 85 -15 258 -83 370 -147 52 -29 187 -139 232
-188 134 -146 222 -332 245 -521 3 -25 7 -52 8 -60 1 -10 35 -21 111 -37 172
-35 174 -35 175 -15 0 9 2 24 4 32 6 29 84 481 101 585 4 28 19 113 28 160 2
11 7 43 11 70 5 28 9 52 10 55 8 34 22 119 29 177 3 18 7 37 10 42 4 5 2 12
-2 15 -7 4 -91 23 -182 40 -14 3 -49 9 -79 15 -80 16 -79 17 -87 -46 -5 -32
-9 -60 -9 -63 -1 -3 -5 -27 -10 -55 -4 -27 -9 -53 -12 -57 -2 -4 -30 5 -61 21
-282 142 -662 257 -982 296 -69 9 -138 18 -155 21 -34 6 -640 16 -646 10z"/>
</g>
</svg>
